<svg height="32" viewBox="0 0 32 32" width="32" xmlns="http://www.w3.org/2000/svg"><g fill="none" fill-rule="evenodd"><path d="m0 0h32v32h-32z" fill="#f7f2ed"/><path d="m17.5048378 2-.0008378 7.76.065.017 3.6193699-6.85675588 2.6573859 1.42350594-3.6147558 6.84824994.017.015 6.3056678-4.44797968 1.726279 2.48378793-6.3159468 4.45419175.024.063 7.6452128-.9451051.3667872 3.009544-7.648.9455611-.008.066 7.1958934 2.7836675-1.0785713 2.8307514-7.1883221-2.7804189-.014.019 5.1508407 5.7621777-2.2366249 2.0289011-5.1602158-5.7740788-.059.032 1.8638251 7.5284577-2.9202754.7335423-1.8655497-7.534h-.066l-1.8635497 7.534-2.9202754-.7335423 1.8628251-7.5284577-.059-.032-5.1592158 5.7740788-2.23662489-2.0289011 5.14984069-5.7621777-.013-.019-7.1883221 2.7804189-1.0785713-2.8307514 7.1948934-2.7836675-.008-.066-7.647-.9455611.3667872-3.009544 7.6442128.9451051.024-.063-6.31494681-4.45419175 1.72627904-2.48378793 6.30466777 4.44797968.017-.016-3.6137558-6.84724994 2.6573859-1.42350594 3.6183699 6.85575588.065-.016.0001622-7.76z" fill="#648d6b"/></g></svg>